<?xml version="1.0" encoding="UTF-8"?>
<!DOCTYPE svg PUBLIC "-//W3C//DTD SVG 1.1//EN" "http://www.w3.org/Graphics/SVG/1.1/DTD/svg11.dtd">
<!-- Creator: CorelDRAW -->
<svg xmlns="http://www.w3.org/2000/svg" xml:space="preserve" width="9.3712mm" height="9.2876mm" version="1.1" style="shape-rendering:geometricPrecision; text-rendering:geometricPrecision; image-rendering:optimizeQuality; fill-rule:evenodd; clip-rule:evenodd"
viewBox="0 0 31.35 31.07"
 xmlns:xlink="http://www.w3.org/1999/xlink"
 xmlns:xodm="http://www.corel.com/coreldraw/odm/2003">
 <defs>
  <style type="text/css">
   <![CDATA[
    .str0 {stroke:#332C2B;stroke-width:0.24;stroke-miterlimit:22.9256}
    .str1 {stroke:black;stroke-width:0.24;stroke-miterlimit:22.9256}
    .fil2 {fill:#FEFEFE;fill-rule:nonzero}
    .fil1 {fill:#17788C;fill-rule:nonzero}
    .fil0 {fill:#F25E5E;fill-rule:nonzero}
   ]]>
  </style>
 </defs>
 <g id="圖層_x0020_1">
  <metadata id="CorelCorpID_0Corel-Layer"/>
  <g id="_3052817851248">
   <g>
    <path class="fil0" d="M15.95 15.67m-8.68 0c0,4.79 3.89,8.68 8.68,8.68 4.79,0 8.68,-3.89 8.68,-8.68 0,-4.79 -3.89,-8.68 -8.68,-8.68 -4.79,0 -8.68,3.89 -8.68,8.68l0 0z" p-id="7912"/>
    <path class="fil0" d="M15.96 4.2l-0.84 0c-0.31,0 -0.56,-0.25 -0.56,-0.56l0 -3.08c0,-0.31 0.25,-0.56 0.56,-0.56l0.84 0c0.31,0 0.56,0.25 0.56,0.56l0 3.08c0,0.31 -0.25,0.56 -0.56,0.56l0 0zm-8.2 2.88l-0.6 0.6c-0.22,0.22 -0.57,0.22 -0.79,0l-2.18 -2.18c-0.22,-0.22 -0.22,-0.57 0,-0.79l0.6 -0.6c0.22,-0.22 0.57,-0.22 0.79,0l2.18 2.18c0.22,0.22 0.22,0.57 0,0.79zm-3.56 8.03l0 0.84c0,0.31 -0.25,0.56 -0.56,0.56l-3.08 0c-0.31,0 -0.56,-0.25 -0.56,-0.56l0 -0.84c0,-0.31 0.25,-0.56 0.56,-0.56l3.08 0c0.31,0 0.56,0.25 0.56,0.56l0 0zm3.16 8.2l0.6 0.6c0.22,0.22 0.22,0.57 0,0.79l-2.18 2.18c-0.22,0.22 -0.57,0.22 -0.79,0l-0.6 -0.6c-0.22,-0.22 -0.22,-0.57 0,-0.79l2.18 -2.18c0.22,-0.22 0.57,-0.22 0.79,0zm8.03 3.56l0.84 0c0.31,0 0.56,0.25 0.56,0.56l0 3.08c0,0.31 -0.25,0.56 -0.56,0.56l-0.84 0c-0.31,0 -0.56,-0.25 -0.56,-0.56l0 -3.08c0,-0.31 0.25,-0.56 0.56,-0.56l0 0zm8.2 -3.16l0.6 -0.6c0.22,-0.22 0.57,-0.22 0.79,0l2.18 2.18c0.22,0.22 0.22,0.57 0,0.79l-0.6 0.6c-0.22,0.22 -0.57,0.22 -0.79,0l-2.18 -2.18c-0.22,-0.22 -0.22,-0.57 0,-0.79zm3.56 -8.03l0 -0.84c0,-0.31 0.25,-0.56 0.56,-0.56l3.08 0c0.31,0 0.56,0.25 0.56,0.56l0 0.84c0,0.31 -0.25,0.56 -0.56,0.56l-3.08 0c-0.31,0 -0.56,-0.25 -0.56,-0.56l0 0zm-3.16 -8.2l-0.6 -0.6c-0.22,-0.22 -0.22,-0.57 0,-0.79l2.18 -2.18c0.22,-0.22 0.57,-0.22 0.79,0l0.6 0.6c0.22,0.22 0.22,0.57 0,0.79l-2.18 2.18c-0.22,0.22 -0.57,0.22 -0.79,0z" p-id="7913"/>
   </g>
   <g id="太阳_x0020__x0028_1_x0029_.svg">
    <path class="fil0 str0" d="M15.83 15.61m-9.73 0c0,5.37 4.36,9.73 9.73,9.73 5.37,0 9.73,-4.36 9.73,-9.73 0,-5.37 -4.36,-9.73 -9.73,-9.73 -5.37,0 -9.73,4.36 -9.73,9.73l-0 0z" p-id="7912"/>
   </g>
   <g>
    <path class="fil1 str1" d="M12.68 24.82c0.7,0.24 1.43,0.4 2.19,0.47l-0.13 -0.34 -1.06 -2.76 -1 2.62z" p-id="7912"/>
    <path class="fil1 str1" d="M16.69 25.3c0.76,-0.07 1.5,-0.22 2.21,-0.45l-1.02 -2.65 -1.06 2.76 -0.13 0.35z" p-id="7912"/>
    <path class="fil1 str1" d="M14.16 25.2c0.54,0.09 1.1,0.14 1.67,0.14 0.57,0 1.13,-0.05 1.67,-0.14l-0.62 -1.61 -1.06 -2.76 -1.06 2.76 -0.62 1.61z" p-id="7912"/>
   </g>
   <g id="眼睛.svg">
    <path class="fil2" d="M15.83 11.73c1.9,0 3.6,1.2 5.08,3.54 0.07,0.1 0.1,0.22 0.1,0.34 0,0.12 -0.03,0.24 -0.1,0.34 -1.49,2.34 -3.18,3.54 -5.08,3.54 -1.9,0 -3.6,-1.2 -5.08,-3.54 -0.07,-0.1 -0.1,-0.22 -0.1,-0.34 0,-0.12 0.03,-0.24 0.1,-0.34 1.49,-2.34 3.18,-3.54 5.08,-3.54zm0 1.55c-1.29,0 -2.33,1.04 -2.33,2.33 0,1.29 1.04,2.33 2.33,2.33 1.29,0 2.33,-1.04 2.33,-2.33 0,-1.29 -1.04,-2.33 -2.33,-2.33zm0 3.89c0.86,0 1.55,-0.7 1.55,-1.55 0,-0.86 -0.7,-1.55 -1.55,-1.55 -0.86,0 -1.55,0.7 -1.55,1.55 0,0.86 0.7,1.55 1.55,1.55z" p-id="3313"/>
   </g>
  </g>
 </g>
</svg>
